<?xml version="1.0" encoding="UTF-8" standalone="no"?>
<!DOCTYPE svg PUBLIC "-//W3C//DTD SVG 1.1//EN"
 "http://www.w3.org/Graphics/SVG/1.1/DTD/svg11.dtd">
<!-- Generated by graphviz version 2.40.1 (0)
 -->
<!-- Title: %3 Pages: 1 -->
<svg width="1006pt" height="962pt"
 viewBox="0.00 0.00 1005.78 962.00" xmlns="http://www.w3.org/2000/svg" xmlns:xlink="http://www.w3.org/1999/xlink">
<g id="graph0" class="graph" transform="scale(1 1) rotate(0) translate(4 958)">
<title>%3</title>
<!-- parser -->
<g id="node1" class="node">
<title>parser</title>
<polygon fill="#ffff00" stroke="#000000" points="684,-457 540,-457 540,-421 684,-421 684,-457"/>
<text text-anchor="middle" x="612" y="-435.3" font-family="Times,serif" font-size="14.00" fill="#000000">Parser</text>
</g>
<!-- expr -->
<g id="node4" class="node">
<title>expr</title>
<polygon fill="#ffff00" stroke="#000000" points="684,-349 540,-349 540,-313 684,-313 684,-349"/>
<text text-anchor="middle" x="612" y="-327.3" font-family="Times,serif" font-size="14.00" fill="#000000">Expressions</text>
</g>
<!-- parser&#45;&gt;expr -->
<g id="edge49" class="edge">
<title>parser&#45;&gt;expr</title>
<path fill="none" stroke="#000000" d="M539.9728,-420.762C532.7984,-416.1215 526.5121,-410.3008 522,-403 513.5883,-389.3896 513.5883,-380.6104 522,-367 524.6791,-362.6651 527.9836,-358.8521 531.7281,-355.4981"/>
<polygon fill="#000000" stroke="#000000" points="534.125,-358.0728 539.9728,-349.238 529.8919,-352.4977 534.125,-358.0728"/>
</g>
<!-- support -->
<g id="node8" class="node">
<title>support</title>
<polygon fill="#ffff00" stroke="#000000" points="872.5928,-630 728.5928,-630 728.5928,-594 872.5928,-594 872.5928,-630"/>
<text text-anchor="middle" x="800.5928" y="-608.3" font-family="Times,serif" font-size="14.00" fill="#000000">Supporting Abstractions</text>
</g>
<!-- parser&#45;&gt;support -->
<g id="edge42" class="edge">
<title>parser&#45;&gt;support</title>
<path fill="none" stroke="#000000" d="M673.1876,-457.0009C677.1381,-459.6085 680.8052,-462.5904 684,-466 721.7816,-506.321 681.5085,-545.3561 720,-585 720.9251,-585.9528 721.8848,-586.872 722.8755,-587.7588"/>
<polygon fill="#000000" stroke="#000000" points="720.9373,-590.6817 731.0181,-593.9415 725.1704,-585.1067 720.9373,-590.6817"/>
</g>
<!-- Parser.hs -->
<g id="node20" class="node">
<title>Parser.hs</title>
<ellipse fill="none" stroke="transparent" cx="800.5928" cy="-450" rx="35.9954" ry="18"/>
<text text-anchor="middle" x="800.5928" y="-446.3" font-family="Times,serif" font-size="14.00" fill="#000000">Parser.hs</text>
</g>
<!-- parser&#45;&gt;Parser.hs -->
<g id="edge10" class="edge">
<title>parser&#45;&gt;Parser.hs</title>
<path fill="none" stroke="#000000" d="M684.1061,-443.2057C707.8765,-444.5922 733.6414,-446.0949 754.8815,-447.3338"/>
<polygon fill="#000000" stroke="#000000" points="754.7296,-450.8308 764.9165,-447.9191 755.1373,-443.8427 754.7296,-450.8308"/>
</g>
<!-- Parser/Library.hs -->
<g id="node21" class="node">
<title>Parser/Library.hs</title>
<ellipse fill="none" stroke="transparent" cx="800.5928" cy="-558" rx="57.6901" ry="18"/>
<text text-anchor="middle" x="800.5928" y="-554.3" font-family="Times,serif" font-size="14.00" fill="#000000">Parser/Library.hs</text>
</g>
<!-- parser&#45;&gt;Parser/Library.hs -->
<g id="edge11" class="edge">
<title>parser&#45;&gt;Parser/Library.hs</title>
<path fill="none" stroke="#000000" d="M671.3559,-457.1823C675.872,-459.7609 680.1591,-462.686 684,-466 709.0033,-487.5732 694.6177,-509.874 720,-531 726.603,-536.4957 734.3708,-540.8882 742.4323,-544.395"/>
<polygon fill="#000000" stroke="#000000" points="741.39,-547.7453 751.9783,-548.1179 743.9334,-541.2237 741.39,-547.7453"/>
</g>
<!-- Parser/Operators.hs -->
<g id="node22" class="node">
<title>Parser/Operators.hs</title>
<ellipse fill="none" stroke="transparent" cx="800.5928" cy="-504" rx="64.189" ry="18"/>
<text text-anchor="middle" x="800.5928" y="-500.3" font-family="Times,serif" font-size="14.00" fill="#000000">Parser/Operators.hs</text>
</g>
<!-- parser&#45;&gt;Parser/Operators.hs -->
<g id="edge12" class="edge">
<title>parser&#45;&gt;Parser/Operators.hs</title>
<path fill="none" stroke="#000000" d="M662.7655,-457.0389C680.8149,-463.4057 701.2949,-470.5764 720,-477 729.4204,-480.2351 739.476,-483.6413 749.177,-486.9034"/>
<polygon fill="#000000" stroke="#000000" points="748.1292,-490.2436 758.7231,-490.1059 750.3556,-483.6071 748.1292,-490.2436"/>
</g>
<!-- value -->
<g id="node2" class="node">
<title>value</title>
<polygon fill="#ffff00" stroke="#000000" points="684,-695 540,-695 540,-659 684,-659 684,-695"/>
<text text-anchor="middle" x="612" y="-673.3" font-family="Times,serif" font-size="14.00" fill="#000000">Values</text>
</g>
<!-- value&#45;&gt;expr -->
<g id="edge50" class="edge">
<title>value&#45;&gt;expr</title>
<path fill="none" stroke="#000000" d="M577.1364,-658.7272C556.9771,-646.0631 533.4053,-627.1432 522,-603 510.7995,-579.2902 508.2142,-389.306 522,-367 524.6791,-362.6651 527.9836,-358.8521 531.7281,-355.4981"/>
<polygon fill="#000000" stroke="#000000" points="534.125,-358.0728 539.9728,-349.238 529.8919,-352.4977 534.125,-358.0728"/>
</g>
<!-- value&#45;&gt;support -->
<g id="edge43" class="edge">
<title>value&#45;&gt;support</title>
<path fill="none" stroke="#000000" d="M662.7655,-658.9611C680.8149,-652.5943 701.2949,-645.4236 720,-639 725.4538,-637.1271 731.1205,-635.1968 736.808,-633.2704"/>
<polygon fill="#000000" stroke="#000000" points="738.0111,-636.5584 746.3655,-630.0427 735.7713,-629.9264 738.0111,-636.5584"/>
</g>
<!-- Convert.hs -->
<g id="node23" class="node">
<title>Convert.hs</title>
<ellipse fill="none" stroke="transparent" cx="800.5928" cy="-774" rx="40.0939" ry="18"/>
<text text-anchor="middle" x="800.5928" y="-770.3" font-family="Times,serif" font-size="14.00" fill="#000000">Convert.hs</text>
</g>
<!-- value&#45;&gt;Convert.hs -->
<g id="edge13" class="edge">
<title>value&#45;&gt;Convert.hs</title>
<path fill="none" stroke="#000000" d="M668.8595,-695.0797C674.1734,-697.7169 679.3155,-700.682 684,-704 704.3394,-718.4063 699.4081,-732.957 720,-747 730.191,-753.9499 742.3199,-759.2399 754.0344,-763.213"/>
<polygon fill="#000000" stroke="#000000" points="753.1365,-766.5994 763.7255,-766.2483 755.2287,-759.9194 753.1365,-766.5994"/>
</g>
<!-- Normal.hs -->
<g id="node24" class="node">
<title>Normal.hs</title>
<ellipse fill="none" stroke="transparent" cx="800.5928" cy="-720" rx="39.7935" ry="18"/>
<text text-anchor="middle" x="800.5928" y="-716.3" font-family="Times,serif" font-size="14.00" fill="#000000">Normal.hs</text>
</g>
<!-- value&#45;&gt;Normal.hs -->
<g id="edge14" class="edge">
<title>value&#45;&gt;Normal.hs</title>
<path fill="none" stroke="#000000" d="M684.1061,-693.4405C707.8765,-698.8603 733.6414,-704.7348 754.8815,-709.5776"/>
<polygon fill="#000000" stroke="#000000" points="754.3886,-713.055 764.9165,-711.8656 755.9448,-706.2301 754.3886,-713.055"/>
</g>
<!-- Value.hs -->
<g id="node25" class="node">
<title>Value.hs</title>
<ellipse fill="none" stroke="transparent" cx="800.5928" cy="-666" rx="35.194" ry="18"/>
<text text-anchor="middle" x="800.5928" y="-662.3" font-family="Times,serif" font-size="14.00" fill="#000000">Value.hs</text>
</g>
<!-- value&#45;&gt;Value.hs -->
<g id="edge15" class="edge">
<title>value&#45;&gt;Value.hs</title>
<path fill="none" stroke="#000000" d="M684.1061,-672.7943C708.1446,-671.3922 734.2229,-669.8711 755.5985,-668.6244"/>
<polygon fill="#000000" stroke="#000000" points="755.9054,-672.1125 765.6846,-668.0361 755.4978,-665.1244 755.9054,-672.1125"/>
</g>
<!-- eval -->
<g id="node3" class="node">
<title>eval</title>
<polygon fill="#ffff00" stroke="#000000" points="684,-403 540,-403 540,-367 684,-367 684,-403"/>
<text text-anchor="middle" x="612" y="-381.3" font-family="Times,serif" font-size="14.00" fill="#000000">Core Evaluator</text>
</g>
<!-- eval&#45;&gt;expr -->
<g id="edge51" class="edge">
<title>eval&#45;&gt;expr</title>
<path fill="none" stroke="#000000" d="M612,-366.7902C612,-364.3082 612,-361.8262 612,-359.3443"/>
<polygon fill="#000000" stroke="#000000" points="615.5001,-359.1406 612,-349.1406 608.5001,-359.1407 615.5001,-359.1406"/>
</g>
<!-- eval&#45;&gt;support -->
<g id="edge44" class="edge">
<title>eval&#45;&gt;support</title>
<path fill="none" stroke="#000000" d="M674.1928,-403.1551C677.8088,-405.7237 681.133,-408.655 684,-412 735.1087,-471.6306 667.8408,-526.2861 720,-585 720.6431,-585.724 721.3063,-586.4285 721.9879,-587.1143"/>
<polygon fill="#000000" stroke="#000000" points="720.0194,-590.0308 729.935,-593.7634 724.5113,-584.662 720.0194,-590.0308"/>
</g>
<!-- Context.hs -->
<g id="node38" class="node">
<title>Context.hs</title>
<ellipse fill="none" stroke="transparent" cx="800.5928" cy="-396" rx="40.0939" ry="18"/>
<text text-anchor="middle" x="800.5928" y="-392.3" font-family="Times,serif" font-size="14.00" fill="#000000">Context.hs</text>
</g>
<!-- eval&#45;&gt;Context.hs -->
<g id="edge38" class="edge">
<title>eval&#45;&gt;Context.hs</title>
<path fill="none" stroke="#000000" d="M684.1061,-389.2057C706.1551,-390.4918 729.9201,-391.8779 750.1982,-393.0606"/>
<polygon fill="#000000" stroke="#000000" points="750.2701,-396.5707 760.457,-393.659 750.6778,-389.5826 750.2701,-396.5707"/>
</g>
<!-- Eval.hs -->
<g id="node39" class="node">
<title>Eval.hs</title>
<ellipse fill="none" stroke="transparent" cx="800.5928" cy="-342" rx="31.3957" ry="18"/>
<text text-anchor="middle" x="800.5928" y="-338.3" font-family="Times,serif" font-size="14.00" fill="#000000">Eval.hs</text>
</g>
<!-- eval&#45;&gt;Eval.hs -->
<g id="edge39" class="edge">
<title>eval&#45;&gt;Eval.hs</title>
<path fill="none" stroke="#000000" d="M684.1061,-368.5595C710.4372,-362.5559 739.2156,-355.9943 761.5801,-350.8951"/>
<polygon fill="#000000" stroke="#000000" points="762.4008,-354.2979 771.3725,-348.6624 760.8446,-347.473 762.4008,-354.2979"/>
</g>
<!-- expr&#45;&gt;support -->
<g id="edge45" class="edge">
<title>expr&#45;&gt;support</title>
<path fill="none" stroke="#000000" d="M674.377,-349.0011C677.9498,-351.6058 681.2139,-354.5873 684,-358 748.5999,-437.1291 654.0056,-507.0301 720,-585 720.6256,-585.7391 721.2721,-586.4581 721.938,-587.1575"/>
<polygon fill="#000000" stroke="#000000" points="719.8985,-590.0215 729.7478,-593.9257 724.483,-584.7316 719.8985,-590.0215"/>
</g>
<!-- Atoms.hs -->
<g id="node11" class="node">
<title>Atoms.hs</title>
<ellipse fill="none" stroke="transparent" cx="800.5928" cy="-288" rx="36.2938" ry="18"/>
<text text-anchor="middle" x="800.5928" y="-284.3" font-family="Times,serif" font-size="14.00" fill="#000000">Atoms.hs</text>
</g>
<!-- expr&#45;&gt;Atoms.hs -->
<g id="edge1" class="edge">
<title>expr&#45;&gt;Atoms.hs</title>
<path fill="none" stroke="#000000" d="M684.1061,-314.5595C708.8823,-308.9104 735.8253,-302.7673 757.5528,-297.8133"/>
<polygon fill="#000000" stroke="#000000" points="758.4823,-301.1913 767.4541,-295.5558 756.9262,-294.3664 758.4823,-301.1913"/>
</g>
<!-- Expr.hs -->
<g id="node12" class="node">
<title>Expr.hs</title>
<ellipse fill="none" stroke="transparent" cx="800.5928" cy="-234" rx="31.6951" ry="18"/>
<text text-anchor="middle" x="800.5928" y="-230.3" font-family="Times,serif" font-size="14.00" fill="#000000">Expr.hs</text>
</g>
<!-- expr&#45;&gt;Expr.hs -->
<g id="edge2" class="edge">
<title>expr&#45;&gt;Expr.hs</title>
<path fill="none" stroke="#000000" d="M636.2632,-312.7258C657.4936,-297.3718 689.6073,-275.6502 720,-261 733.1346,-254.6687 748.1368,-249.2024 761.608,-244.8766"/>
<polygon fill="#000000" stroke="#000000" points="763.0382,-248.0977 771.5548,-241.7955 760.967,-241.4112 763.0382,-248.0977"/>
</g>
<!-- Expr/Shorthands.hs -->
<g id="node13" class="node">
<title>Expr/Shorthands.hs</title>
<ellipse fill="none" stroke="transparent" cx="800.5928" cy="-180" rx="64.189" ry="18"/>
<text text-anchor="middle" x="800.5928" y="-176.3" font-family="Times,serif" font-size="14.00" fill="#000000">Expr/Shorthands.hs</text>
</g>
<!-- expr&#45;&gt;Expr/Shorthands.hs -->
<g id="edge3" class="edge">
<title>expr&#45;&gt;Expr/Shorthands.hs</title>
<path fill="none" stroke="#000000" d="M623.3126,-312.6959C640.8324,-285.8004 677.0276,-235.6953 720,-207 726.805,-202.4559 734.4434,-198.6135 742.2349,-195.3821"/>
<polygon fill="#000000" stroke="#000000" points="743.6781,-198.5775 751.769,-191.7374 741.1785,-192.039 743.6781,-198.5775"/>
</g>
<!-- Expr/Types.hs -->
<g id="node14" class="node">
<title>Expr/Types.hs</title>
<ellipse fill="none" stroke="transparent" cx="800.5928" cy="-126" rx="50.0912" ry="18"/>
<text text-anchor="middle" x="800.5928" y="-122.3" font-family="Times,serif" font-size="14.00" fill="#000000">Expr/Types.hs</text>
</g>
<!-- expr&#45;&gt;Expr/Types.hs -->
<g id="edge4" class="edge">
<title>expr&#45;&gt;Expr/Types.hs</title>
<path fill="none" stroke="#000000" d="M618.0957,-312.9934C631.0988,-277.2519 664.9433,-197.0101 720,-153 727.8666,-146.7117 737.267,-141.8573 746.8242,-138.1192"/>
<polygon fill="#000000" stroke="#000000" points="748.1202,-141.3734 756.3826,-134.7414 745.7879,-134.7734 748.1202,-141.3734"/>
</g>
<!-- Expr/Types/Annotated.hs -->
<g id="node15" class="node">
<title>Expr/Types/Annotated.hs</title>
<ellipse fill="none" stroke="transparent" cx="800.5928" cy="-72" rx="80.6858" ry="18"/>
<text text-anchor="middle" x="800.5928" y="-68.3" font-family="Times,serif" font-size="14.00" fill="#000000">Expr/Types/Annotated.hs</text>
</g>
<!-- expr&#45;&gt;Expr/Types/Annotated.hs -->
<g id="edge5" class="edge">
<title>expr&#45;&gt;Expr/Types/Annotated.hs</title>
<path fill="none" stroke="#000000" d="M615.3887,-312.6914C624.3824,-269.2176 652.9103,-158.9419 720,-99 724.1952,-95.2517 728.9284,-92.0211 733.9461,-89.237"/>
<polygon fill="#000000" stroke="#000000" points="735.7877,-92.2324 743.2308,-84.6925 732.7103,-85.9451 735.7877,-92.2324"/>
</g>
<!-- Strings.hs -->
<g id="node16" class="node">
<title>Strings.hs</title>
<ellipse fill="none" stroke="transparent" cx="800.5928" cy="-18" rx="37.8943" ry="18"/>
<text text-anchor="middle" x="800.5928" y="-14.3" font-family="Times,serif" font-size="14.00" fill="#000000">Strings.hs</text>
</g>
<!-- expr&#45;&gt;Strings.hs -->
<g id="edge6" class="edge">
<title>expr&#45;&gt;Strings.hs</title>
<path fill="none" stroke="#000000" d="M613.5796,-312.6825C618.8819,-262.5194 640.4767,-121.5725 720,-45 729.3938,-35.9547 741.9064,-29.9369 754.2649,-25.9342"/>
<polygon fill="#000000" stroke="#000000" points="755.4229,-29.2437 764.0807,-23.1369 753.5043,-22.5117 755.4229,-29.2437"/>
</g>
<!-- pretty -->
<g id="node5" class="node">
<title>pretty</title>
<polygon fill="#ffff00" stroke="#000000" points="684,-857 540,-857 540,-821 684,-821 684,-857"/>
<text text-anchor="middle" x="612" y="-835.3" font-family="Times,serif" font-size="14.00" fill="#000000">Pretty Printer</text>
</g>
<!-- pretty&#45;&gt;value -->
<g id="edge56" class="edge">
<title>pretty&#45;&gt;value</title>
<path fill="none" stroke="#000000" d="M539.9728,-820.762C532.7984,-816.1215 526.5121,-810.3008 522,-803 500.9708,-768.974 500.9708,-747.026 522,-713 524.6791,-708.6651 527.9836,-704.8521 531.7281,-701.4981"/>
<polygon fill="#000000" stroke="#000000" points="534.125,-704.0728 539.9728,-695.238 529.8919,-698.4977 534.125,-704.0728"/>
</g>
<!-- pretty&#45;&gt;expr -->
<g id="edge52" class="edge">
<title>pretty&#45;&gt;expr</title>
<path fill="none" stroke="#000000" d="M539.9728,-820.762C532.7984,-816.1215 526.5121,-810.3008 522,-803 509.2656,-782.3953 509.2656,-387.6047 522,-367 524.6791,-362.6651 527.9836,-358.8521 531.7281,-355.4981"/>
<polygon fill="#000000" stroke="#000000" points="534.125,-358.0728 539.9728,-349.238 529.8919,-352.4977 534.125,-358.0728"/>
</g>
<!-- pretty&#45;&gt;support -->
<g id="edge46" class="edge">
<title>pretty&#45;&gt;support</title>
<path fill="none" stroke="#000000" d="M674.1928,-820.8449C677.8088,-818.2763 681.133,-815.345 684,-812 735.1087,-752.3694 667.8408,-697.7139 720,-639 720.6431,-638.276 721.3063,-637.5715 721.9879,-636.8857"/>
<polygon fill="#000000" stroke="#000000" points="724.5113,-639.338 729.935,-630.2366 720.0194,-633.9692 724.5113,-639.338"/>
</g>
<!-- Pretty.hs -->
<g id="node17" class="node">
<title>Pretty.hs</title>
<ellipse fill="none" stroke="transparent" cx="800.5928" cy="-936" rx="35.194" ry="18"/>
<text text-anchor="middle" x="800.5928" y="-932.3" font-family="Times,serif" font-size="14.00" fill="#000000">Pretty.hs</text>
</g>
<!-- pretty&#45;&gt;Pretty.hs -->
<g id="edge7" class="edge">
<title>pretty&#45;&gt;Pretty.hs</title>
<path fill="none" stroke="#000000" d="M636.2632,-857.2742C657.4936,-872.6282 689.6073,-894.3498 720,-909 732.4991,-915.0249 746.6894,-920.2666 759.6422,-924.4875"/>
<polygon fill="#000000" stroke="#000000" points="758.6681,-927.8501 769.2575,-927.5123 760.7687,-921.1727 758.6681,-927.8501"/>
</g>
<!-- Render.hs -->
<g id="node18" class="node">
<title>Render.hs</title>
<ellipse fill="none" stroke="transparent" cx="800.5928" cy="-882" rx="38.1938" ry="18"/>
<text text-anchor="middle" x="800.5928" y="-878.3" font-family="Times,serif" font-size="14.00" fill="#000000">Render.hs</text>
</g>
<!-- pretty&#45;&gt;Render.hs -->
<g id="edge8" class="edge">
<title>pretty&#45;&gt;Render.hs</title>
<path fill="none" stroke="#000000" d="M684.1061,-855.4405C708.3436,-860.9668 734.6548,-866.9658 756.1285,-871.8619"/>
<polygon fill="#000000" stroke="#000000" points="755.4115,-875.2882 765.9394,-874.0989 756.9677,-868.4634 755.4115,-875.2882"/>
</g>
<!-- Render/Frame.hs -->
<g id="node19" class="node">
<title>Render/Frame.hs</title>
<ellipse fill="none" stroke="transparent" cx="800.5928" cy="-828" rx="57.6901" ry="18"/>
<text text-anchor="middle" x="800.5928" y="-824.3" font-family="Times,serif" font-size="14.00" fill="#000000">Render/Frame.hs</text>
</g>
<!-- pretty&#45;&gt;Render/Frame.hs -->
<g id="edge9" class="edge">
<title>pretty&#45;&gt;Render/Frame.hs</title>
<path fill="none" stroke="#000000" d="M684.1061,-834.7943C700.2279,-833.854 717.2672,-832.8601 733.19,-831.9314"/>
<polygon fill="#000000" stroke="#000000" points="733.6923,-835.4081 743.4715,-831.3317 733.2846,-828.42 733.6923,-835.4081"/>
</g>
<!-- exec -->
<g id="node6" class="node">
<title>exec</title>
<polygon fill="#ffff00" stroke="#000000" points="504,-657 360,-657 360,-621 504,-621 504,-657"/>
<text text-anchor="middle" x="432" y="-635.3" font-family="Times,serif" font-size="14.00" fill="#000000">Executing Evaluator</text>
</g>
<!-- exec&#45;&gt;value -->
<g id="edge53" class="edge">
<title>exec&#45;&gt;value</title>
<path fill="none" stroke="#000000" d="M504.1757,-654.2371C512.6116,-656.018 521.2652,-657.8449 529.8236,-659.6517"/>
<polygon fill="#000000" stroke="#000000" points="529.3008,-663.1183 539.8081,-661.7595 530.7467,-656.2693 529.3008,-663.1183"/>
</g>
<!-- exec&#45;&gt;eval -->
<g id="edge54" class="edge">
<title>exec&#45;&gt;eval</title>
<path fill="none" stroke="#000000" d="M494.2965,-620.9325C497.8881,-618.3433 501.1786,-615.3835 504,-612 561.8421,-542.6348 482.1579,-481.3652 540,-412 540.6172,-411.2599 541.2568,-410.54 541.9171,-409.8398"/>
<polygon fill="#000000" stroke="#000000" points="544.4551,-412.271 549.7035,-403.0675 539.8612,-406.9893 544.4551,-412.271"/>
</g>
<!-- builtins -->
<g id="node7" class="node">
<title>builtins</title>
<polygon fill="#ffff00" stroke="#000000" points="504,-603 360,-603 360,-567 504,-567 504,-603"/>
<text text-anchor="middle" x="432" y="-581.3" font-family="Times,serif" font-size="14.00" fill="#000000">Built&#45;in Functions</text>
</g>
<!-- exec&#45;&gt;builtins -->
<g id="edge55" class="edge">
<title>exec&#45;&gt;builtins</title>
<path fill="none" stroke="#000000" d="M432,-620.7902C432,-618.3082 432,-615.8262 432,-613.3443"/>
<polygon fill="#000000" stroke="#000000" points="435.5001,-613.1406 432,-603.1406 428.5001,-613.1407 435.5001,-613.1406"/>
</g>
<!-- exec&#45;&gt;support -->
<g id="edge47" class="edge">
<title>exec&#45;&gt;support</title>
<path fill="none" stroke="#000000" d="M504.3823,-633.6979C565.8763,-629.1934 654.1242,-622.7291 718.2921,-618.0287"/>
<polygon fill="#000000" stroke="#000000" points="718.6585,-621.5113 728.3761,-617.29 718.1471,-614.53 718.6585,-621.5113"/>
</g>
<!-- Effects.hs -->
<g id="node40" class="node">
<title>Effects.hs</title>
<ellipse fill="none" stroke="transparent" cx="612" cy="-785" rx="37.8943" ry="18"/>
<text text-anchor="middle" x="612" y="-781.3" font-family="Times,serif" font-size="14.00" fill="#000000">Effects.hs</text>
</g>
<!-- exec&#45;&gt;Effects.hs -->
<g id="edge40" class="edge">
<title>exec&#45;&gt;Effects.hs</title>
<path fill="none" stroke="#000000" d="M444.2194,-657.2095C462.3405,-682.949 498.6783,-729.9545 540,-758 548.8731,-764.0223 559.2668,-768.9236 569.3532,-772.8145"/>
<polygon fill="#000000" stroke="#000000" points="568.2755,-776.1463 578.8699,-776.2389 570.6456,-769.5597 568.2755,-776.1463"/>
</g>
<!-- Exec.hs -->
<g id="node41" class="node">
<title>Exec.hs</title>
<ellipse fill="none" stroke="transparent" cx="612" cy="-731" rx="31.6951" ry="18"/>
<text text-anchor="middle" x="612" y="-727.3" font-family="Times,serif" font-size="14.00" fill="#000000">Exec.hs</text>
</g>
<!-- exec&#45;&gt;Exec.hs -->
<g id="edge41" class="edge">
<title>exec&#45;&gt;Exec.hs</title>
<path fill="none" stroke="#000000" d="M459.1923,-657.2744C480.5772,-671.171 511.4311,-690.1899 540,-704 550.9696,-709.3026 563.2686,-714.256 574.5551,-718.4353"/>
<polygon fill="#000000" stroke="#000000" points="573.5596,-721.7969 584.154,-721.8979 575.935,-715.2122 573.5596,-721.7969"/>
</g>
<!-- builtins&#45;&gt;value -->
<g id="edge57" class="edge">
<title>builtins&#45;&gt;value</title>
<path fill="none" stroke="#000000" d="M483.6174,-603.0424C490.5536,-605.8473 497.5095,-608.8625 504,-612 528.9978,-624.0838 555.745,-640.1556 576.3675,-653.2944"/>
<polygon fill="#000000" stroke="#000000" points="574.5044,-656.2575 584.8077,-658.7256 578.2923,-650.3709 574.5044,-656.2575"/>
</g>
<!-- builtins&#45;&gt;support -->
<g id="edge48" class="edge">
<title>builtins&#45;&gt;support</title>
<path fill="none" stroke="#000000" d="M484.0458,-566.9223C535.9823,-551.7496 617.4208,-535.8069 684,-558 702.9737,-564.3246 702.2914,-575.7045 720,-585 723.2623,-586.7124 726.6549,-588.3477 730.1213,-589.9045"/>
<polygon fill="#000000" stroke="#000000" points="728.8574,-593.17 739.4309,-593.8415 731.5839,-586.7228 728.8574,-593.17"/>
</g>
<!-- Builtins.hs -->
<g id="node26" class="node">
<title>Builtins.hs</title>
<ellipse fill="none" stroke="transparent" cx="612" cy="-493" rx="40.0939" ry="18"/>
<text text-anchor="middle" x="612" y="-489.3" font-family="Times,serif" font-size="14.00" fill="#000000">Builtins.hs</text>
</g>
<!-- builtins&#45;&gt;Builtins.hs -->
<g id="edge16" class="edge">
<title>builtins&#45;&gt;Builtins.hs</title>
<path fill="none" stroke="#000000" d="M477.4037,-566.8372C486.4195,-562.6739 495.668,-557.9903 504,-553 521.3894,-542.5849 522.6106,-535.4151 540,-525 549.8832,-519.0806 561.056,-513.5927 571.6003,-508.893"/>
<polygon fill="#000000" stroke="#000000" points="573.2609,-511.9883 581.0522,-504.8087 570.4842,-505.5625 573.2609,-511.9883"/>
</g>
<!-- XML.hs -->
<g id="node27" class="node">
<title>XML.hs</title>
<ellipse fill="none" stroke="transparent" cx="612" cy="-585" rx="33.5952" ry="18"/>
<text text-anchor="middle" x="612" y="-581.3" font-family="Times,serif" font-size="14.00" fill="#000000">XML.hs</text>
</g>
<!-- builtins&#45;&gt;XML.hs -->
<g id="edge17" class="edge">
<title>builtins&#45;&gt;XML.hs</title>
<path fill="none" stroke="#000000" d="M504.1757,-585C525.6322,-585 548.4967,-585 567.6236,-585"/>
<polygon fill="#000000" stroke="#000000" points="567.8324,-588.5001 577.8324,-585 567.8324,-581.5001 567.8324,-588.5001"/>
</g>
<!-- Frames.hs -->
<g id="node28" class="node">
<title>Frames.hs</title>
<ellipse fill="none" stroke="transparent" cx="957.4821" cy="-720" rx="38.1938" ry="18"/>
<text text-anchor="middle" x="957.4821" y="-716.3" font-family="Times,serif" font-size="14.00" fill="#000000">Frames.hs</text>
</g>
<!-- support&#45;&gt;Frames.hs -->
<g id="edge18" class="edge">
<title>support&#45;&gt;Frames.hs</title>
<path fill="none" stroke="#000000" d="M867.1013,-630.1879C872.0829,-632.7602 876.8493,-635.6827 881.1857,-639 904.0953,-656.5257 896.8134,-672.5802 917.1857,-693 919.6391,-695.4591 922.3481,-697.8268 925.1667,-700.0686"/>
<polygon fill="#000000" stroke="#000000" points="923.1467,-702.9276 933.2787,-706.0249 927.2896,-697.2852 923.1467,-702.9276"/>
</g>
<!-- Scope.hs -->
<g id="node29" class="node">
<title>Scope.hs</title>
<ellipse fill="none" stroke="transparent" cx="957.4821" cy="-666" rx="35.194" ry="18"/>
<text text-anchor="middle" x="957.4821" y="-662.3" font-family="Times,serif" font-size="14.00" fill="#000000">Scope.hs</text>
</g>
<!-- support&#45;&gt;Scope.hs -->
<g id="edge19" class="edge">
<title>support&#45;&gt;Scope.hs</title>
<path fill="none" stroke="#000000" d="M854.8248,-630.0293C863.6444,-633.0014 872.6751,-636.0688 881.1857,-639 893.4328,-643.2182 906.7532,-647.8996 918.7859,-652.1637"/>
<polygon fill="#000000" stroke="#000000" points="917.9438,-655.5788 928.5385,-655.6281 920.2869,-648.9826 917.9438,-655.5788"/>
</g>
<!-- Thunk.hs -->
<g id="node30" class="node">
<title>Thunk.hs</title>
<ellipse fill="none" stroke="transparent" cx="957.4821" cy="-612" rx="36.2938" ry="18"/>
<text text-anchor="middle" x="957.4821" y="-608.3" font-family="Times,serif" font-size="14.00" fill="#000000">Thunk.hs</text>
</g>
<!-- support&#45;&gt;Thunk.hs -->
<g id="edge20" class="edge">
<title>support&#45;&gt;Thunk.hs</title>
<path fill="none" stroke="#000000" d="M872.609,-612C885.5681,-612 898.7628,-612 910.7655,-612"/>
<polygon fill="#000000" stroke="#000000" points="910.9708,-615.5001 920.9707,-612 910.9707,-608.5001 910.9708,-615.5001"/>
</g>
<!-- Options.hs -->
<g id="node31" class="node">
<title>Options.hs</title>
<ellipse fill="none" stroke="transparent" cx="957.4821" cy="-558" rx="40.0939" ry="18"/>
<text text-anchor="middle" x="957.4821" y="-554.3" font-family="Times,serif" font-size="14.00" fill="#000000">Options.hs</text>
</g>
<!-- support&#45;&gt;Options.hs -->
<g id="edge21" class="edge">
<title>support&#45;&gt;Options.hs</title>
<path fill="none" stroke="#000000" d="M854.8248,-593.9707C863.6444,-590.9986 872.6751,-587.9312 881.1857,-585 892.591,-581.0717 904.9273,-576.7417 916.2874,-572.7211"/>
<polygon fill="#000000" stroke="#000000" points="917.7172,-575.9277 925.9713,-569.2854 915.3766,-569.3306 917.7172,-575.9277"/>
</g>
<!-- Utils.hs -->
<g id="node32" class="node">
<title>Utils.hs</title>
<ellipse fill="none" stroke="transparent" cx="957.4821" cy="-504" rx="31.6951" ry="18"/>
<text text-anchor="middle" x="957.4821" y="-500.3" font-family="Times,serif" font-size="14.00" fill="#000000">Utils.hs</text>
</g>
<!-- support&#45;&gt;Utils.hs -->
<g id="edge22" class="edge">
<title>support&#45;&gt;Utils.hs</title>
<path fill="none" stroke="#000000" d="M867.1013,-593.8121C872.0829,-591.2398 876.8493,-588.3173 881.1857,-585 904.0953,-567.4743 896.8134,-551.4198 917.1857,-531 920.048,-528.131 923.2582,-525.3865 926.5844,-522.8211"/>
<polygon fill="#000000" stroke="#000000" points="928.8527,-525.5022 934.9591,-516.8441 924.7863,-519.8045 928.8527,-525.5022"/>
</g>
<!-- features -->
<g id="node9" class="node">
<title>features</title>
<polygon fill="#ffff00" stroke="#000000" points="324,-430 180,-430 180,-394 324,-394 324,-430"/>
<text text-anchor="middle" x="252" y="-408.3" font-family="Times,serif" font-size="14.00" fill="#000000">Other Features</text>
</g>
<!-- Cache.hs -->
<g id="node33" class="node">
<title>Cache.hs</title>
<ellipse fill="none" stroke="transparent" cx="432" cy="-493" rx="35.9954" ry="18"/>
<text text-anchor="middle" x="432" y="-489.3" font-family="Times,serif" font-size="14.00" fill="#000000">Cache.hs</text>
</g>
<!-- features&#45;&gt;Cache.hs -->
<g id="edge23" class="edge">
<title>features&#45;&gt;Cache.hs</title>
<path fill="none" stroke="#000000" d="M286.0972,-430.1996C307.1371,-441.1401 334.8275,-455.0231 360,-466 370.4933,-470.5758 382.0353,-475.1156 392.746,-479.13"/>
<polygon fill="#000000" stroke="#000000" points="391.7014,-482.4752 402.2947,-482.655 394.1257,-475.9084 391.7014,-482.4752"/>
</g>
<!-- Lint.hs -->
<g id="node34" class="node">
<title>Lint.hs</title>
<ellipse fill="none" stroke="transparent" cx="432" cy="-331" rx="29.795" ry="18"/>
<text text-anchor="middle" x="432" y="-327.3" font-family="Times,serif" font-size="14.00" fill="#000000">Lint.hs</text>
</g>
<!-- features&#45;&gt;Lint.hs -->
<g id="edge24" class="edge">
<title>features&#45;&gt;Lint.hs</title>
<path fill="none" stroke="#000000" d="M286.0972,-393.8004C307.1371,-382.8599 334.8275,-368.9769 360,-358 371.7591,-352.8722 384.8351,-347.7897 396.5824,-343.441"/>
<polygon fill="#000000" stroke="#000000" points="397.8851,-346.6915 406.0796,-339.9758 395.4857,-340.1155 397.8851,-346.6915"/>
</g>
<!-- Reduce.hs -->
<g id="node35" class="node">
<title>Reduce.hs</title>
<ellipse fill="none" stroke="transparent" cx="432" cy="-439" rx="38.9931" ry="18"/>
<text text-anchor="middle" x="432" y="-435.3" font-family="Times,serif" font-size="14.00" fill="#000000">Reduce.hs</text>
</g>
<!-- features&#45;&gt;Reduce.hs -->
<g id="edge25" class="edge">
<title>features&#45;&gt;Reduce.hs</title>
<path fill="none" stroke="#000000" d="M324.1757,-422.8264C344.6419,-425.8963 366.3892,-429.1584 384.9519,-431.9428"/>
<polygon fill="#000000" stroke="#000000" points="384.4999,-435.4141 394.9085,-433.4363 385.5384,-428.4915 384.4999,-435.4141"/>
</g>
<!-- Type/... -->
<g id="node36" class="node">
<title>Type/...</title>
<ellipse fill="none" stroke="transparent" cx="432" cy="-277" rx="31.6951" ry="18"/>
<text text-anchor="middle" x="432" y="-273.3" font-family="Times,serif" font-size="14.00" fill="#000000">Type/...</text>
</g>
<!-- features&#45;&gt;Type/... -->
<g id="edge26" class="edge">
<title>features&#45;&gt;Type/...</title>
<path fill="none" stroke="#000000" d="M265.8767,-393.9507C284.8423,-370.3662 320.9848,-329.1224 360,-304 370.1572,-297.4597 382.13,-292.1695 393.3658,-288.0628"/>
<polygon fill="#000000" stroke="#000000" points="394.6661,-291.3169 402.9858,-284.7569 392.3911,-284.6969 394.6661,-291.3169"/>
</g>
<!-- TH.hs -->
<g id="node37" class="node">
<title>TH.hs</title>
<ellipse fill="none" stroke="transparent" cx="432" cy="-385" rx="27.0966" ry="18"/>
<text text-anchor="middle" x="432" y="-381.3" font-family="Times,serif" font-size="14.00" fill="#000000">TH.hs</text>
</g>
<!-- features&#45;&gt;TH.hs -->
<g id="edge27" class="edge">
<title>features&#45;&gt;TH.hs</title>
<path fill="none" stroke="#000000" d="M324.1757,-401.1736C348.4962,-397.5256 374.6255,-393.6062 395.0705,-390.5394"/>
<polygon fill="#000000" stroke="#000000" points="395.8339,-393.9642 405.2041,-389.0194 394.7955,-387.0416 395.8339,-393.9642"/>
</g>
<!-- main -->
<g id="node10" class="node">
<title>main</title>
<polygon fill="#00ff00" stroke="#000000" points="144,-607 0,-607 0,-571 144,-571 144,-607"/>
<text text-anchor="middle" x="72" y="-585.3" font-family="Times,serif" font-size="14.00" fill="#000000">Top&#45;Level Driver</text>
</g>
<!-- main&#45;&gt;parser -->
<g id="edge58" class="edge">
<title>main&#45;&gt;parser</title>
<path fill="none" stroke="#000000" d="M144.105,-580.6785C259.1187,-566.9314 474.2378,-539.1014 504,-520 528.275,-504.4203 517.4051,-483.9297 540,-466 541.5686,-464.7552 543.2006,-463.5637 544.8832,-462.4233"/>
<polygon fill="#000000" stroke="#000000" points="546.8969,-465.2963 553.658,-457.1392 543.2857,-459.2997 546.8969,-465.2963"/>
</g>
<!-- main&#45;&gt;pretty -->
<g id="edge59" class="edge">
<title>main&#45;&gt;pretty</title>
<path fill="none" stroke="#000000" d="M107.3382,-607.1245C184.7581,-646.5457 375.5679,-742.1457 540,-812 544.1201,-813.7503 548.3961,-815.5053 552.7165,-817.2337"/>
<polygon fill="#000000" stroke="#000000" points="551.615,-820.5614 562.2022,-820.963 554.1763,-814.0468 551.615,-820.5614"/>
</g>
<!-- main&#45;&gt;exec -->
<g id="edge60" class="edge">
<title>main&#45;&gt;exec</title>
<path fill="none" stroke="#000000" d="M144.4183,-599.0581C203.7397,-607.2972 287.6847,-618.9562 349.5743,-627.552"/>
<polygon fill="#000000" stroke="#000000" points="349.311,-631.0489 359.6974,-628.958 350.274,-624.1155 349.311,-631.0489"/>
</g>
<!-- main&#45;&gt;features -->
<g id="edge61" class="edge">
<title>main&#45;&gt;features</title>
<path fill="none" stroke="#000000" d="M90.5852,-570.7246C122.8708,-538.977 189.3763,-473.5799 226.1444,-437.4247"/>
<polygon fill="#000000" stroke="#000000" points="228.8396,-439.683 233.5159,-430.176 223.9316,-434.6919 228.8396,-439.683"/>
</g>
<!-- Cache.hs&#45;&gt;parser -->
<g id="edge28" class="edge">
<title>Cache.hs&#45;&gt;parser</title>
<path fill="none" stroke="#000000" d="M462.9431,-483.7171C484.6076,-477.2177 514.4463,-468.2661 541.738,-460.0786"/>
<polygon fill="#000000" stroke="#000000" points="543.0853,-463.3286 551.6578,-457.1027 541.0738,-456.6238 543.0853,-463.3286"/>
</g>
<!-- Cache.hs&#45;&gt;expr -->
<g id="edge29" class="edge">
<title>Cache.hs&#45;&gt;expr</title>
<path fill="none" stroke="#000000" d="M465.9687,-486.881C479.3511,-482.9283 493.9027,-476.4782 504,-466 539.1088,-429.5668 504.8912,-394.4332 540,-358 540.9119,-357.0537 541.8601,-356.1403 542.8405,-355.2586"/>
<polygon fill="#000000" stroke="#000000" points="545.0868,-357.9472 550.9184,-349.1016 540.8435,-352.38 545.0868,-357.9472"/>
</g>
<!-- Lint.hs&#45;&gt;eval -->
<g id="edge30" class="edge">
<title>Lint.hs&#45;&gt;eval</title>
<path fill="none" stroke="#000000" d="M458.9478,-339.0843C480.8881,-345.6664 512.875,-355.2625 541.9404,-363.9821"/>
<polygon fill="#000000" stroke="#000000" points="541.0826,-367.3788 551.6666,-366.9 543.0941,-360.674 541.0826,-367.3788"/>
</g>
<!-- Lint.hs&#45;&gt;expr -->
<g id="edge31" class="edge">
<title>Lint.hs&#45;&gt;expr</title>
<path fill="none" stroke="#000000" d="M462.128,-331C480.693,-331 505.4786,-331 529.5403,-331"/>
<polygon fill="#000000" stroke="#000000" points="529.7879,-334.5001 539.7878,-331 529.7878,-327.5001 529.7879,-334.5001"/>
</g>
<!-- Reduce.hs&#45;&gt;parser -->
<g id="edge32" class="edge">
<title>Reduce.hs&#45;&gt;parser</title>
<path fill="none" stroke="#000000" d="M471.0573,-439C488.2172,-439 509.0613,-439 529.3981,-439"/>
<polygon fill="#000000" stroke="#000000" points="529.6421,-442.5001 539.6421,-439 529.6421,-435.5001 529.6421,-442.5001"/>
</g>
<!-- Reduce.hs&#45;&gt;expr -->
<g id="edge33" class="edge">
<title>Reduce.hs&#45;&gt;expr</title>
<path fill="none" stroke="#000000" d="M466.8705,-430.7543C479.4696,-426.5875 493.2287,-420.5473 504,-412 526.5949,-394.0703 517.4051,-375.9297 540,-358 541.5686,-356.7552 543.2006,-355.5637 544.8832,-354.4233"/>
<polygon fill="#000000" stroke="#000000" points="546.8969,-357.2963 553.658,-349.1392 543.2857,-351.2997 546.8969,-357.2963"/>
</g>
<!-- Type/...&#45;&gt;eval -->
<g id="edge34" class="edge">
<title>Type/...&#45;&gt;eval</title>
<path fill="none" stroke="#000000" d="M461.8077,-283.6488C475.674,-287.8169 491.7647,-294.2909 504,-304 526.5949,-321.9297 517.4051,-340.0703 540,-358 541.5686,-359.2448 543.2006,-360.4363 544.8832,-361.5767"/>
<polygon fill="#000000" stroke="#000000" points="543.2857,-364.7003 553.658,-366.8608 546.8969,-358.7037 543.2857,-364.7003"/>
</g>
<!-- Type/...&#45;&gt;expr -->
<g id="edge35" class="edge">
<title>Type/...&#45;&gt;expr</title>
<path fill="none" stroke="#000000" d="M460.5215,-285.5565C482.4245,-292.1273 513.6329,-301.4899 542.0365,-310.0109"/>
<polygon fill="#000000" stroke="#000000" points="541.3623,-313.4627 551.9463,-312.9839 543.3738,-306.758 541.3623,-313.4627"/>
</g>
<!-- TH.hs&#45;&gt;parser -->
<g id="edge36" class="edge">
<title>TH.hs&#45;&gt;parser</title>
<path fill="none" stroke="#000000" d="M457.0282,-392.5085C479.0813,-399.1244 512.2785,-409.0836 542.2975,-418.0892"/>
<polygon fill="#000000" stroke="#000000" points="541.33,-421.4531 551.914,-420.9742 543.3415,-414.7483 541.33,-421.4531"/>
</g>
<!-- TH.hs&#45;&gt;expr -->
<g id="edge37" class="edge">
<title>TH.hs&#45;&gt;expr</title>
<path fill="none" stroke="#000000" d="M457.0282,-377.4915C479.0813,-370.8756 512.2785,-360.9164 542.2975,-351.9108"/>
<polygon fill="#000000" stroke="#000000" points="543.3415,-355.2517 551.914,-349.0258 541.33,-348.5469 543.3415,-355.2517"/>
</g>
</g>
</svg>
