<?xml version="1.0" encoding="UTF-8" standalone="no"?>
<svg
   xmlns:dc="http://purl.org/dc/elements/1.1/"
   xmlns:cc="http://creativecommons.org/ns#"
   xmlns:rdf="http://www.w3.org/1999/02/22-rdf-syntax-ns#"
   xmlns:svg="http://www.w3.org/2000/svg"
   xmlns="http://www.w3.org/2000/svg"
   viewBox="0 0 33.381454 33.381456"
   height="33.381458mm"
   width="33.381458mm"
   version="1.1"
   id="svg18">
  <metadata
     id="metadata22">
    <rdf:RDF>
      <cc:Work
         rdf:about="">
        <dc:format>image/svg+xml</dc:format>
        <dc:type
           rdf:resource="http://purl.org/dc/dcmitype/StillImage" />
        <dc:title></dc:title>
      </cc:Work>
    </rdf:RDF>
  </metadata>
  <defs
     id="defs10">
    <linearGradient
       id="b"
       spreadMethod="pad"
       gradientTransform="matrix(94.626,0,0,-94.626,203.937,2233.813)"
       gradientUnits="userSpaceOnUse"
       y2="0.852"
       x2="0.148"
       y1="0.148"
       x1="0.852">
      <stop
         offset="0"
         stop-color="#16c0f0"
         id="stop2" />
      <stop
         offset="1"
         stop-color="#8a25b1"
         id="stop4" />
    </linearGradient>
    <clipPath
       id="a"
       clipPathUnits="userSpaceOnUse">
      <path
         d="M 54,2329 H 3113.5 V 76.301 H 54 Z"
         id="path7" />
    </clipPath>
  </defs>
  <g
     clip-path="url(#a)"
     transform="matrix(0.35278,0,0,-0.35278,-71.945248,788.0442)"
     id="g16">
    <path
       d="m 263.078,2221.984 c -19.59,0 -35.484,-15.886 -35.484,-35.48 0,-13.063 10.59,-23.656 23.656,-23.656 13.062,0 23.652,10.593 23.656,23.656 0,8.703 -7.058,15.769 -15.769,15.769 -8.711,0 -15.774,-7.066 -15.774,-15.773 a 7.885,7.885 0 0 1 7.887,-7.883 7.885,7.885 0 0 1 7.887,7.883 h -7.887 a 7.885,7.885 0 0 0 7.887,7.887 7.882,7.882 0 0 0 7.883,-7.887 c 0,-8.711 -7.063,-15.77 -15.77,-15.77 -8.711,0 -15.77,7.059 -15.77,15.77 0,13.062 10.59,23.656 23.657,23.656 13.066,0 23.652,-10.59 23.656,-23.652 v -0.01 c -0.004,-17.418 -14.125,-31.543 -31.543,-31.543 -17.418,0 -31.543,14.125 -31.543,31.543 v 0.01 c 0,23.949 19.422,43.367 43.371,43.367 3.106,0 6.125,-0.34 9.043,-0.961 -6.301,3.11 -13.371,4.902 -20.871,4.902 -26.129,0 -47.312,-21.183 -47.312,-47.312 0,-26.129 21.183,-47.312 47.312,-47.312 26.129,0 47.312,21.183 47.312,47.312 0,1.223 -0.093,2.426 -0.183,3.625 -1.817,17.895 -16.926,31.859 -35.301,31.859 z"
       id="path12"
       style="fill:url(#b)" />
  </g>
</svg>
